<?xml version="1.0" encoding="utf-8"?>
<!-- Generator: Adobe Illustrator 24.1.1, SVG Export Plug-In . SVG Version: 6.00 Build 0)  -->
<svg version="1.1" id="Layer_1" xmlns="http://www.w3.org/2000/svg" xmlns:xlink="http://www.w3.org/1999/xlink" x="0px" y="0px"
	 viewBox="0 0 512 512" style="enable-background:new 0 0 512 512;" xml:space="preserve">
<style type="text/css">
	.st0{fill:#F39C12;}
	.st1{fill:#F1C40F;}
	.st2{fill:#E67E22;}
</style>
<g id="XMLID_1_">
	<circle id="XMLID_3_" class="st0" cx="255.6" cy="445" r="67"/>
	<path id="XMLID_4_" class="st1" d="M255.6,0c-18.1,0-33.1,15-33.1,33.1c0,3.9,0.8,7.9,2.4,11.8c-29.9,4.7-54.4,15-72.5,33.1
		c-18.9,18.1-27.6,44.1-27.6,74.8c0,49.6-10.2,97.7-29.1,142.6S48.4,377.3,11.4,408c0,10.2,3.9,18.1,11,26c7.1,7.1,16.5,11,26.8,11
		h72.5H180h10.2h13.4h9.5h12.6h105.6h131.5c10.2,0,18.9-3.9,26.8-11c7.9-7.1,11-15.8,11-26c-37-30.7-65.4-67.7-84.3-112.6
		c-18.9-44.9-29.1-92.9-29.1-142.6c0-31.5-8.7-56.7-27.6-74.8c-18.1-17.3-41.7-28.4-72.5-33.1c1.6-3.9,2.4-7.9,2.4-11.8
		C288.7,15,273.7,0,255.6,0z"/>
	<path id="XMLID_5_" class="st2" d="M255.6,378.1c-37,0-67,29.1-67,67c0,35.4,29.9,67,67,67V378.1z"/>
	<path id="XMLID_6_" class="st0" d="M255.6,0c-18.1,0-33.1,13.4-33.1,33.1c0,2.4,0.8,6.3,2.4,11c-29.9,4.7-54.4,15.8-72.5,33.1
		c-18.9,18.1-27.6,42.5-27.6,73.3c0,51.2-10.2,97.7-29.1,142.6c-18.9,46.5-47.3,82.7-84.3,113.4c0,11,3.9,18.1,11,26.8
		c7.1,6.3,16.5,11,26.8,11h72.5H180h10.2h13.4h9.5h12.6h29.9V0z"/>
	<path id="XMLID_7_" class="st2" d="M188.7,445c0,6.3,1.6,13.4,3.9,22.1h125.2c2.4-8.7,3.9-15.8,3.9-22.1H188.7z"/>
</g>
</svg>
